<svg xmlns="http://www.w3.org/2000/svg" viewBox="0 0 64 64">
  <defs>
    <linearGradient id="g1" x1="0" y1="0" x2="1" y2="1">
      <stop offset="0%" stop-color="#7dd3fc"/>
      <stop offset="100%" stop-color="#0ea5e9"/>
    </linearGradient>
    <linearGradient id="g2" x1="0" y1="0" x2="1" y2="1">
      <stop offset="0%" stop-color="#4ade80"/>
      <stop offset="100%" stop-color="#16a34a"/>
    </linearGradient>
    <linearGradient id="g3" x1="0" y1="0" x2="1" y2="1">
      <stop offset="0%" stop-color="#f59e0b"/>
      <stop offset="100%" stop-color="#f97316"/>
    </linearGradient>
  </defs>
  <rect width="64" height="64" rx="12" fill="#0f172a"/>
  <polygon points="12,18 52,18 44,26 20,26" fill="url(#g2)"/>
  <polygon points="12,18 20,26 20,46 12,38" fill="#7c2d12"/>
  <polygon points="20,26 44,26 36,46 20,46" fill="#c2410c"/>
  <polygon points="44,26 52,18 52,38 44,46" fill="#9a3412"/>
  <path d="M18 24 L20 22 L44 22 L46 24 L46 38 L44 40 L20 40 L18 38 Z" fill="rgba(255,255,255,0.15)"/>
  <text x="32" y="38" text-anchor="middle" font-family="'Press Start 2P',monospace" font-size="18" fill="#fde047" stroke="#d97706" stroke-width="1">PS</text>
  <circle cx="32" cy="28" r="3.5" fill="rgba(255,255,255,0.35)" />
  <path d="M16 14 L32 6 L48 14" fill="none" stroke="#facc15" stroke-width="2" stroke-linecap="round" opacity="0.6"/>
</svg>
